<svg width="47" height="47" viewBox="0 0 347 347" fill="none" xmlns="http://www.w3.org/2000/svg">
<path d="M0 173.5C0 77.6786 77.6786 0 173.5 0C222.313 0 266.418 20.158 297.944 52.6036L238.235 134.198L221.167 110.873L218.719 107.528L218.7 107.5C217.63 105.953 215.843 104.94 213.82 104.94C211.898 104.94 210.19 105.854 209.107 107.271L206.468 110.875L129.046 216.685L113.012 194.773L170.385 116.303C171.023 115.358 171.41 114.196 171.41 112.97C171.41 109.695 168.755 107.04 165.48 107.04H45.7901C42.5151 107.04 39.8601 109.695 39.8601 112.97C39.8601 114.277 40.308 115.52 41.0247 116.5L98.3131 194.774L36.2257 279.617C13.5156 250.282 0 213.47 0 173.5Z" fill="#006955"/>
<path d="M57.4914 118.9H105.663H153.837L129.75 151.815L105.663 184.73L81.5772 151.815L57.4914 118.9Z" fill="#006955"/>
<path d="M238.234 154.283L190.08 220.09H286.391L238.234 154.283Z" fill="#006955"/>
<path d="M173.5 347C269.321 347 347 269.321 347 173.5C347 130.846 331.608 91.7862 306.074 61.5734L245.583 144.24L301.086 220.09L302.769 222.389C302.837 222.476 302.902 222.566 302.965 222.657C303.624 223.613 304.01 224.771 304.01 226.02C304.01 229.295 301.355 231.95 298.08 231.95L298.065 231.95L298 231.95L295.07 231.95L178.39 231.95L178.359 231.95C175.098 231.933 172.46 229.285 172.46 226.02C172.46 224.715 172.88 223.509 173.594 222.53L173.616 222.5L230.885 144.241L213.817 120.917L136.392 226.725L133.723 230.381C132.637 231.768 130.948 232.66 129.05 232.66C127.109 232.66 125.386 231.727 124.304 230.286L121.698 226.726L105.663 204.816L44.047 289.02C75.82 324.6 122.044 347 173.5 347Z" fill="#006955"/>
<path fill-rule="evenodd" clip-rule="evenodd" d="M298 231.95C298.009 231.95 298.017 231.95 298.026 231.95L298.048 231.95L298 231.95Z" fill="#D64E52"/>
<path fill-rule="evenodd" clip-rule="evenodd" d="M105.663 184.73L129.75 151.815H105.663H81.5772L105.663 184.73Z" fill="#D64E52"/>
</svg>
